<?xml version="1.0" encoding="utf-8"?>
<!-- Generator: Adobe Illustrator 27.8.0, SVG Export Plug-In . SVG Version: 6.00 Build 0)  -->
<svg version="1.1" id="Ebene_1" xmlns="http://www.w3.org/2000/svg"
	xmlns:xlink="http://www.w3.org/1999/xlink" x="0px" y="0px"
	viewBox="10 100 283.5 63.5" style="background: #fff;" xml:space="preserve">
<style type="text/css">
	.st0{fill:#AA0052;}
	.st1{fill:#1D1D1B;}
	.st2{fill:none;stroke:#AA0052;stroke-width:1.2521;stroke-miterlimit:10;}
	.st3{fill:none;stroke:#1D1D1B;stroke-width:0.9459;stroke-miterlimit:10;}
</style>
<g>
	<g>
		<path class="st0" d="M119.1,140.7L119.1,140.7c-1,1.4-2.1,2.2-3.8,2.2c-4.3,0-4.5-4.3-4.5-7.7c0-2.9,0-7.7,4.6-7.7
			c1.4,0,2.7,0.6,3.6,1.8l0.1,0l0-7.9l1.8,0l0,18.3c0,1.5,0.1,2.4,0.2,2.9l-1.7,0L119.1,140.7z M119,136.5l0-2.6c0-0.9,0-5-3.3-5
			c-3.2,0-3.2,2.9-3.2,6.4c0,5.5,1.3,6.3,3.2,6.3C117.5,141.5,119.1,140.1,119,136.5z"/>
		<path class="st0" d="M124.8,123.6l0-2.2l2.2,0l0,2.2L124.8,123.6z M125,142.6l0-14.9l1.8,0l0,14.9L125,142.6z"/>
		<path class="st0" d="M138.7,127.7l1.7,0c-0.1,1.4-0.1,2.1-0.1,2.9l0,12.5c0,3.3-1,5.2-5.2,5.2c-3.7,0-4.4-2.6-4.3-4.1l1.8,0
			c-0.1,1.7,1.2,2.7,2.8,2.7c3.4,0,3.2-1.9,3.2-6.3h-0.1c-0.8,1.3-2.2,1.8-3.6,1.8c-4.3,0-4.6-3.7-4.6-7c0-3.4,0-3.5,0.4-5.1
			c0.1-0.6,1.2-2.9,4.2-2.9c1.5,0,3,0.8,3.7,2.1l0.1,0.1L138.7,127.7z M132.1,134.8c0,3.1,0,6.2,3.2,6.2c1.5,0,2.4-1,2.7-1.7
			c0.4-1.1,0.6-1.8,0.6-6.2c0-3.1-1.7-4.3-3.3-4.3C132.2,128.9,132.1,132.6,132.1,134.8z"/>
		<path class="st0" d="M144.4,123.6l0-2.2l2.2,0l0,2.2L144.4,123.6z M144.6,142.6l0-14.9l1.8,0l0,14.9L144.6,142.6z"/>
		<path class="st0" d="M149.2,129.1l0-1.4l2.4,0l0-3.1l1.8-0.8l0,3.8l3,0l0,1.4l-3,0l0,9.5c0,2,0.2,2.4,1.6,2.4c0.6,0,1,0,1.4-0.1
			l0,1.5c-0.5,0.1-1.1,0.1-1.7,0.1c-2.4,0-3.1-1.1-3.1-2.9l0-10.6L149.2,129.1z"/>
		<path class="st0" d="M166.4,140.8L166.4,140.8c-1,1.4-2.4,2.1-4.3,2.1c-2.6,0-4.1-1.8-4.1-4.4c0-5.2,5.2-4.7,8.2-4.9l0-1.2
			c0-2.2-0.7-3.5-3-3.5c-1.6,0-2.9,0.8-2.9,2.6l-1.9,0c0.1-2.9,2.4-4,4.9-4c1.5,0,4.6,0.1,4.6,3.9l0,7.5c0,1.1,0,2,0.2,3.7l-1.8,0
			L166.4,140.8z M166.3,135c-2.5,0.1-6.4-0.2-6.4,3.4c0,1.7,0.9,3.1,2.7,3.1c2,0,3.7-1.8,3.7-3.8L166.3,135z"/>
		<path class="st0" d="M172.4,142.6l0-21.3l1.8,0l0,21.3L172.4,142.6z"/>
		<path class="st1" d="M184.1,121.3l12.8,0l0,3.9l-8.9,14.1l9.2,0l0,3.3l-13.4,0l0-3.9l8.9-14.1l-8.5,0L184.1,121.3z"/>
		<path class="st1" d="M201.1,142.6l0-21.3l11.6,0l0,3.3l-7.2,0l0,5.2l6.6,0l0,3.3l-6.6,0l0,6.2l7.4,0l0,3.3L201.1,142.6z"/>
		<path class="st1" d="M217.3,142.5l0-21.3l4.4,0l0,21.3L217.3,142.5z"/>
		<path class="st1" d="M239.6,121.3l0,3.5l-4.9,0l0,17.7l-4.4,0l0-17.7l-4.9,0l0-3.5L239.6,121.3z"/>
	</g>
	<g>
		<path class="st0" d="M183.7,156.3v-6.8h3.5v0.8h-2.6v2.2h2.4v0.8h-2.4v2.3h2.7v0.8H183.7z"/>
		<path class="st0" d="M189.1,152.3L189.1,152.3c0.3-0.7,0.7-0.8,1.5-0.8v0.8c-0.1,0-0.1,0-0.2,0c-0.1,0-0.1,0-0.2,0
			c-0.9,0-1.1,0.6-1.1,1.3v2.8h-0.8v-4.7h0.8V152.3z"/>
		<path class="st0" d="M191.5,151.6v-0.9c0-1,0.7-1.1,1.4-1.1c0.2,0,0.3,0,0.4,0v0.6c-0.8-0.1-1,0.3-1,0.7v0.8h1v0.6h-1v4.2h-0.8
			v-4.2h-0.7v-0.6H191.5z"/>
		<path class="st0" d="M196.5,155.7L196.5,155.7c-0.3,0.5-0.6,0.8-1.2,0.8c-1,0-1.3-0.6-1.3-1.6c0-1.4,1.4-1.5,2.5-1.5
			c0-0.6,0-1.3-0.8-1.3c-0.5,0-0.8,0.3-0.7,0.8h-0.8c0-1.1,0.6-1.4,1.6-1.4c1.2,0,1.5,0.6,1.5,1.4v2.3c0,0.4,0,0.8,0.1,1.1h-0.8
			V155.7z M194.7,154.9c0,0.5,0.2,0.9,0.7,0.9c0.5,0,1.1-0.3,1-1.8C195.7,154,194.7,153.9,194.7,154.9z"/>
		<path class="st0" d="M200.1,156.4c-1,0-1.7-0.5-1.6-1.5h0.9c0,0.3,0,0.9,0.8,0.9c0.5,0,0.8-0.2,0.8-0.7c0-0.8-2.4-0.9-2.4-2.3
			c0-0.5,0.3-1.3,1.6-1.3c0.8,0,1.6,0.4,1.5,1.3h-0.9c0-0.5-0.3-0.8-0.7-0.8c-0.4,0-0.7,0.2-0.7,0.6c0,0.8,2.4,0.8,2.4,2.3
			C201.8,156,201,156.4,200.1,156.4z"/>
		<path class="st0" d="M204.3,156.4c-1,0-1.7-0.5-1.6-1.5h0.9c0,0.3,0,0.9,0.8,0.9c0.5,0,0.8-0.2,0.8-0.7c0-0.8-2.4-0.9-2.4-2.3
			c0-0.5,0.3-1.3,1.6-1.3c0.8,0,1.6,0.4,1.5,1.3H205c0-0.5-0.3-0.8-0.7-0.8c-0.4,0-0.7,0.2-0.7,0.6c0,0.8,2.4,0.8,2.4,2.3
			C205.9,156,205.2,156.4,204.3,156.4z"/>
		<path class="st0" d="M207.8,154.2c0,1.3,0.4,1.6,1,1.6c0.5,0,0.8-0.4,0.8-0.9h0.8c0,1.1-0.7,1.5-1.7,1.5c-1,0-1.8-0.3-1.8-2.4
			c0-1.4,0.2-2.5,1.8-2.5c1.4,0,1.7,0.7,1.7,2.3v0.4H207.8z M209.6,153.6c0-1.4-0.4-1.5-0.9-1.5c-0.5,0-0.9,0.2-0.9,1.5H209.6z"/>
		<path class="st0" d="M214.3,156.3v-3.3c0-0.5-0.2-0.9-0.8-0.9c-0.8,0-1,0.8-1,1.4v2.8h-0.8v-3.8c0-0.3,0-0.7,0-1h0.8v0.6h0
			c0.3-0.5,0.7-0.7,1.3-0.7c1,0,1.3,0.6,1.3,1.5v3.3H214.3z"/>
		<path class="st0" d="M221.1,156.3v-3.2c0-0.6-0.2-1-0.8-1c-0.8,0-1,0.6-1,1.4v2.8h-0.8v-6.8h0.8v2.6h0c0.3-0.6,0.7-0.7,1.3-0.7
			c0.8,0,1.3,0.4,1.3,1.5v3.4H221.1z"/>
		<path class="st0" d="M224,154.2c0,1.3,0.4,1.6,1,1.6c0.5,0,0.8-0.4,0.8-0.9h0.8c0,1.1-0.7,1.5-1.7,1.5c-1,0-1.8-0.3-1.8-2.4
			c0-1.4,0.2-2.5,1.8-2.5c1.4,0,1.7,0.7,1.7,2.3v0.4H224z M225.8,153.6c0-1.4-0.4-1.5-0.9-1.5c-0.5,0-0.9,0.2-0.9,1.5H225.8z"/>
		<path class="st0" d="M227.8,149.6h0.9v0.8h-0.9V149.6z M228.7,156.3h-0.8v-4.7h0.8V156.3z"/>
		<path class="st0" d="M232.6,156.4c-0.8,0-1.4-0.3-1.4-1.3h0.8c0,0.4,0.2,0.6,0.6,0.6c0.5,0,0.6-0.4,0.6-0.9c0-1.1-1.5-1.1-1.5-2.3
			c0-0.3,0.2-0.6,0.5-0.8c0.2-0.3,0.5-0.6,0.5-0.9c0-0.6-0.3-0.9-0.9-0.9c-1,0-1,0.7-1,1.2v5.1H230v-5.4c0-1.2,1.2-1.5,1.8-1.5
			c0.9,0,1.8,0.3,1.8,1.4c0,0.5-0.3,0.8-0.5,1c-0.3,0.2-0.5,0.4-0.5,0.7c0,0.7,1.5,0.9,1.5,2.3C234,155.4,233.9,156.4,232.6,156.4z"
			/>
		<path class="st0" d="M235.3,151.6v-0.9l0.8-0.3v1.3h1v0.6h-1v2.9c0,0.3,0,0.7,0.7,0.7c0.1,0,0.2,0,0.3,0v0.6
			c-0.3,0-0.5,0.1-0.8,0.1c-0.7,0-1.1-0.3-1.1-0.8v-3.4h-0.8v-0.6H235.3z"/>
		<path class="st0" d="M239.4,151.6h0.9l1.1,4h0l1.1-4h0.8l-1.5,4.7h-1L239.4,151.6z"/>
		<path class="st0" d="M244.8,154.2c0,1.3,0.4,1.6,1,1.6c0.5,0,0.8-0.4,0.8-0.9h0.8c0,1.1-0.7,1.5-1.7,1.5c-1,0-1.8-0.3-1.8-2.4
			c0-1.4,0.2-2.5,1.8-2.5c1.4,0,1.7,0.7,1.7,2.3v0.4H244.8z M246.7,153.6c0-1.4-0.4-1.5-0.9-1.5c-0.5,0-0.9,0.2-0.9,1.5H246.7z"/>
		<path class="st0" d="M249.6,152.3L249.6,152.3c0.3-0.7,0.7-0.8,1.5-0.8v0.8c-0.1,0-0.1,0-0.2,0c-0.1,0-0.1,0-0.2,0
			c-0.9,0-1.1,0.6-1.1,1.3v2.8h-0.8v-4.7h0.8V152.3z"/>
		<path class="st0" d="M253.3,156.4c-1,0-1.7-0.5-1.6-1.5h0.9c0,0.3,0,0.9,0.8,0.9c0.5,0,0.8-0.2,0.8-0.7c0-0.8-2.4-0.9-2.4-2.3
			c0-0.5,0.3-1.3,1.6-1.3c0.8,0,1.6,0.4,1.5,1.3H254c0-0.5-0.3-0.8-0.7-0.8c-0.4,0-0.7,0.2-0.7,0.6c0,0.8,2.4,0.8,2.4,2.3
			C254.9,156,254.2,156.4,253.3,156.4z"/>
		<path class="st0" d="M256.1,151.6v-0.9l0.8-0.3v1.3h1v0.6h-1v2.9c0,0.3,0,0.7,0.7,0.7c0.1,0,0.2,0,0.3,0v0.6
			c-0.3,0-0.5,0.1-0.8,0.1c-0.7,0-1.1-0.3-1.1-0.8v-3.4h-0.8v-0.6H256.1z"/>
		<path class="st0" d="M259.4,154.2c0,1.3,0.4,1.6,1,1.6c0.5,0,0.8-0.4,0.8-0.9h0.8c0,1.1-0.7,1.5-1.7,1.5c-1,0-1.8-0.3-1.8-2.4
			c0-1.4,0.2-2.5,1.8-2.5c1.4,0,1.7,0.7,1.7,2.3v0.4H259.4z M261.3,153.6c0-1.4-0.4-1.5-0.9-1.5c-0.5,0-0.9,0.2-0.9,1.5H261.3z"/>
		<path class="st0" d="M265.9,156.3v-3.2c0-0.6-0.2-1-0.8-1c-0.8,0-1,0.6-1,1.4v2.8h-0.8v-6.8h0.8v2.6h0c0.3-0.6,0.7-0.7,1.3-0.7
			c0.8,0,1.3,0.4,1.3,1.5v3.4H265.9z"/>
		<path class="st0" d="M268.8,154.2c0,1.3,0.4,1.6,1,1.6c0.5,0,0.8-0.4,0.8-0.9h0.8c0,1.1-0.7,1.5-1.7,1.5c-1,0-1.8-0.3-1.8-2.4
			c0-1.4,0.2-2.5,1.8-2.5c1.4,0,1.7,0.7,1.7,2.3v0.4H268.8z M270.7,153.6c0-1.4-0.4-1.5-0.9-1.5c-0.5,0-0.9,0.2-0.9,1.5H270.7z"/>
		<path class="st0" d="M275.3,156.3v-3.3c0-0.5-0.2-0.9-0.8-0.9c-0.8,0-1,0.8-1,1.4v2.8h-0.8v-3.8c0-0.3,0-0.7,0-1h0.8v0.6h0
			c0.3-0.5,0.7-0.7,1.3-0.7c1,0,1.3,0.6,1.3,1.5v3.3H275.3z"/>
	</g>
	<g>
		<line class="st2" x1="264.1" y1="103.3" x2="264.1" y2="109"/>
		<line class="st2" x1="270.6" y1="106.8" x2="269" y2="109.9"/>
		<g>
			<g>
				<path class="st0" d="M271.9,111.5c1.7,1.5,3,3.5,3.6,5.8c0.6,2.2,0.6,4.6-0.1,6.9c-0.3,1.1-0.9,2.2-1.5,3.2
					c-0.7,1-1.4,1.9-2.3,2.6c-0.9,0.8-1.9,1.4-3,1.9c-1.1,0.5-2.2,0.8-3.4,1c-2.4,0.3-4.9,0-7-1.1c-1.1-0.5-2.1-1.2-3-2
					c-0.9-0.8-1.7-1.7-2.4-2.8c-1.3-2-2-4.5-2-7c0-2.5,0.7-5,2.1-7.1l1.9,1.2c-1.2,1.7-1.9,3.7-2,5.8c-0.1,2.1,0.4,4.2,1.5,6.1
					c0.5,0.9,1.2,1.8,2,2.5c0.8,0.7,1.7,1.4,2.6,1.9c1.9,1,4.1,1.4,6.3,1.2c1.1-0.1,2.2-0.4,3.2-0.8c1-0.4,2-1,2.8-1.6
					c0.9-0.7,1.6-1.5,2.3-2.4c0.6-0.9,1.2-1.9,1.5-3c0.7-2.1,0.9-4.4,0.3-6.6C274.7,115.1,273.5,113,271.9,111.5z"/>
				<g>
					<polygon class="st0" points="256,117.8 258.5,109.5 250,111.5 					"/>
				</g>
			</g>
		</g>
		<g>
			<path class="st0" d="M272,111.4c4,3.4,5.2,9.4,3.1,14.2c-3.3,7.8-14.1,9.9-20.2,4c-6.4-5.6-4.8-16.9,3.2-20.1
				c0,0,0.1,0.2,0.1,0.2c-2.1,1.4-3.8,3.3-4.7,5.6c-1.9,4.4-0.9,9.8,2.6,13.1c5.3,5.5,15.1,3.7,18.3-3.2c2.3-4.5,1.3-10.3-2.4-13.7
				C271.8,111.5,272,111.4,272,111.4L272,111.4z"/>
		</g>
	</g>
</g>
<line class="st3" x1="103.4" y1="109.4" x2="103.4" y2="156.3"/>
<g>
	<g>
		<path class="st1" d="M48.4,145.2c0.2,0,0.3,0.1,0.3,0.3c0,0.2-0.1,0.3-0.3,0.3c-0.1,0-0.3,0.1-0.4,0.1c-2,0.1-4,0.4-6,0.7
			c-0.8,0.1-1.5,0.3-2.3,0.4c-1.4,0.2-2.4,0.8-3.1,1.6c-2.6,3.1-5.8,5.8-9.5,8.2c-1.5,1-3.1,1.8-4.8,2.4c-0.9,0.3-1.8,0.6-2.8,0.7
			c-0.6,0.1-1.2,0-1.8-0.1c-1-0.2-1.5-0.7-1.7-1.4c-0.2-0.7-0.1-1.3,0.3-1.9c0.7-1.2,1.6-2.2,2.9-3.1c1.3-0.9,2.6-1.7,4.1-2.4
			c1.5-0.7,3-1.3,4.6-1.8c2.7-0.9,5.5-1.6,8.4-2.1c0.6-0.1,1-0.4,1.3-0.7c0.8-1,1.5-2,2-3c0.6-1,1-2.1,1.3-3.2
			c0.3-1.1,0.3-2.2,0-3.2c-0.1-0.3-0.2-0.6-0.4-0.9c-0.9-1.4-2.3-2-4.4-1.8c-1.1,0.1-2.1,0.4-3,0.7c-1.4,0.5-2.6,1.1-3.8,1.8
			c-0.3,0.2-0.6,0.4-0.9,0.7c-0.1,0.2-0.3,0.2-0.6,0.1c-0.2-0.1-0.3-0.3-0.2-0.5c0.1-0.1,0.2-0.3,0.4-0.4c1.1-0.8,2.4-1.4,3.7-2
			c1.3-0.6,2.7-0.9,4.3-1.1c2.3-0.3,4.1,0.4,5.2,1.9c0.9,1.3,1.1,2.6,0.8,4c-0.2,1.1-0.5,2.1-1,3.1c-0.5,1-1.1,2-1.7,2.9
			c-0.2,0.2-0.3,0.4-0.5,0.7c-0.1,0.1-0.2,0.3-0.3,0.5c0.5-0.1,0.9-0.2,1.3-0.2c0.9-0.2,1.7-0.3,2.6-0.5c0.1,0,0.2,0,0.3,0
			c1.5-0.3,3.1-0.5,4.6-0.6C47.7,145.2,48,145.2,48.4,145.2z M36,148.1C36,148.1,36,148.1,36,148.1c0.1-0.1,0.1-0.1,0.1-0.2
			s0-0.1,0-0.1c0,0-0.1,0-0.1,0c0,0-0.1,0-0.1,0c-0.1,0-0.2,0-0.2,0c-2.5,0.5-4.9,1.1-7.3,1.9c-2.9,0.9-5.5,2.2-7.9,3.7
			c-1.2,0.8-2.2,1.7-2.9,2.7c-0.4,0.5-0.6,1-0.7,1.6c0,1.2,0.7,1.7,2.4,1.6c1-0.1,1.9-0.3,2.7-0.7c1.6-0.6,3.1-1.4,4.5-2.2
			C30.2,153.9,33.3,151.2,36,148.1z"/>
		<path class="st1" d="M60.6,145.2c0.1,0.1,0.2,0.2,0.2,0.2s0,0.2-0.1,0.3c-0.1,0.1-0.2,0.2-0.3,0.3c-1,0.9-2.1,1.7-3.3,2.5
			c-0.4,0.3-0.8,0.5-1.3,0.6c-1,0.3-1.7,0-2-0.8c-0.1-0.3-0.1-0.7-0.1-1c0-0.2,0.1-0.4,0.1-0.7c0-0.1,0-0.2,0-0.3h0c0,0-0.1,0-0.1,0
			c-0.2,0.1-0.4,0.3-0.6,0.4c-0.4,0.3-0.8,0.7-1.3,1c-0.7,0.6-1.6,1.1-2.5,1.4c-0.9,0.3-1.5,0.4-2,0.1c-0.5-0.2-0.7-0.7-0.6-1.4
			c0.2-1.8,1.3-3.2,3.3-4.3c0.5-0.2,1-0.4,1.5-0.4c1.2-0.1,2,0.3,2.4,1.1c0,0.1,0.1,0.1,0.1,0.2c0,0,0.1,0.1,0.1,0.1
			c0.1,0,0.2,0,0.2-0.1c0,0,0.1-0.1,0.1-0.1c0,0,0.1-0.1,0.1-0.1c0.1-0.1,0.2-0.1,0.3-0.1c0.1,0,0.2,0,0.3,0
			c0.2,0.1,0.3,0.2,0.3,0.4c0,0.2-0.1,0.4-0.2,0.7c0,0.1-0.1,0.2-0.1,0.3c-0.3,0.6-0.5,1.3-0.5,2c0,0.1,0,0.1,0,0.2
			c0,0.1,0,0.3,0,0.4c0,0.1,0.1,0.2,0.3,0.3c0.2,0.1,0.4,0.1,0.6,0c0.2-0.1,0.3-0.1,0.5-0.2c0,0,0.1,0,0.1-0.1
			c1.3-0.8,2.4-1.6,3.5-2.5c0,0,0.1-0.1,0.1-0.1c0.1-0.1,0.1-0.1,0.2-0.2c0.1-0.1,0.2-0.1,0.3-0.2S60.5,145.2,60.6,145.2z
			 M53.1,145.9c0.2-0.2,0.3-0.4,0.2-0.6c0-0.6-0.2-1-0.7-1.2c-0.5-0.2-1-0.2-1.8,0.1c-0.3,0.1-0.6,0.3-0.8,0.4
			c-1.2,0.9-2,1.9-2.3,3.2c-0.1,0.2-0.1,0.4,0,0.6c0,0.4,0.4,0.6,0.9,0.5c0.4-0.1,0.8-0.3,1.2-0.5C51,147.6,52.1,146.8,53.1,145.9z"
			/>
		<path class="st1" d="M72.5,145.3C72.5,145.3,72.6,145.3,72.5,145.3c0.2-0.1,0.3-0.2,0.4-0.2c0.1,0,0.3,0,0.4,0.1
			c0.1,0.1,0.2,0.2,0.1,0.3c-0.1,0.1-0.2,0.2-0.3,0.3c-1.1,1-2.3,1.9-3.6,2.7c-0.3,0.3-0.8,0.4-1.2,0.5c-0.8,0.2-1.3,0-1.6-0.5
			c-0.2-0.4-0.3-0.8-0.2-1.2c0-0.2,0-0.5,0-0.7c0-0.4,0-0.8,0-1.2c0,0,0-0.1,0-0.1c0-0.2,0-0.3,0-0.4s-0.2-0.3-0.4-0.4
			c-0.2-0.1-0.4-0.1-0.6,0c-0.2,0.1-0.4,0.1-0.5,0.2c0,0-0.1,0.1-0.2,0.1c-0.6,0.3-1.2,0.7-1.7,1.2c-1.4,1.2-2.6,2.5-3.5,3.9
			c0,0,0,0,0,0.1c0,0-0.1,0.1-0.1,0.1c0,0-0.1,0.1-0.1,0.1c0,0-0.1,0-0.1,0.1c-0.1,0-0.2,0.1-0.3,0.1c-0.1,0-0.2,0-0.3,0
			c-0.1,0-0.2-0.1-0.2-0.2c0-0.1,0-0.2,0-0.3c0-0.2,0.1-0.4,0.2-0.6c1.4-3.8,2.9-7.5,4.8-11.2c2.6-5.6,5.4-11.1,8.3-16.6
			c0.2-0.3,0.3-0.6,0.5-0.8c0.1-0.1,0.1-0.2,0.2-0.2c0.1-0.1,0.2-0.1,0.4,0c0.2,0.1,0.2,0.1,0.2,0.2c0,0.1,0,0.2-0.1,0.3
			c-0.1,0.3-0.2,0.5-0.4,0.8c0,0,0,0.1,0,0.1c-3.1,5.9-6.1,11.9-8.9,17.9c-1.1,2.4-2.2,4.9-3.2,7.3c0,0.1-0.1,0.3-0.2,0.4
			c0,0.1-0.1,0.2-0.1,0.3c0.2-0.1,0.3-0.2,0.4-0.2c0.1-0.1,0.2-0.2,0.2-0.2c0,0,0.1-0.1,0.1-0.1c0.8-0.9,1.7-1.7,2.7-2.4
			c0.5-0.3,1-0.6,1.6-0.8c1.1-0.3,1.9,0,2.2,0.9c0.1,0.5,0.2,1,0.1,1.5c0,0.1,0,0.1,0,0.2c-0.1,0.6-0.1,1.1,0,1.7
			c0.1,0.5,0.4,0.6,0.9,0.3c0.4-0.2,0.8-0.4,1.1-0.7c0.7-0.5,1.3-1,2-1.5c0.2-0.1,0.4-0.3,0.6-0.4c0,0,0.1-0.1,0.2-0.1
			C72.4,145.4,72.4,145.4,72.5,145.3z"/>
		<path class="st1" d="M82.9,145.1c0.1,0.1,0.2,0.1,0.2,0.2c0,0.1,0,0.2-0.1,0.3c-0.1,0.1-0.2,0.2-0.3,0.3c-1.7,1.4-3.4,2.7-5.3,3.9
			c-0.5,0.3-1,0.6-1.5,0.8c0,0,0,0,0,0c-0.3,0.1-0.5,0.2-0.8,0.3c-0.3,0.1-0.6,0.1-0.8,0.1c-0.3,0-0.5-0.1-0.8-0.2
			c-0.2-0.2-0.4-0.4-0.4-0.6c0-0.2,0-0.4,0.1-0.6c0.2-0.4,0.4-0.7,0.6-1c0.2-0.2,0.4-0.4,0.5-0.6c0.3-0.3,0.5-0.6,0.8-1
			c0.2-0.2,0.3-0.5,0.5-0.7c0.2-0.3,0-0.5-0.4-0.5c-0.4,0-0.7,0-1.1,0c-0.1,0-0.2,0-0.2,0c-0.1,0-0.2,0-0.4,0c-0.3,0-0.6,0-0.9,0
			c-0.7,0-1-0.2-1.1-0.8c0-0.3,0.1-0.5,0.2-0.8c0.6-0.8,1.5-1.4,2.7-1.7c0.2-0.1,0.4-0.1,0.6-0.1c0.2,0,0.4,0.1,0.6,0.2
			c0.2,0.1,0.2,0.3,0.2,0.5c0,0.2-0.1,0.3-0.2,0.5c-0.2,0.3-0.4,0.5-0.6,0.7c0,0,0,0,0,0c0,0-0.1,0.1-0.2,0.1
			c-0.1,0.1-0.1,0.1-0.2,0.2s-0.1,0.1-0.1,0.2c0.2,0.1,0.4,0.1,0.6,0.1c0.1,0,0.2,0,0.4,0c1,0.2,1.3,0.7,1,1.4
			c-0.2,0.3-0.4,0.7-0.7,1c-0.2,0.2-0.3,0.4-0.5,0.6c-0.2,0.3-0.4,0.5-0.7,0.8c-0.2,0.3-0.4,0.5-0.5,0.8c0,0-0.1,0.1-0.1,0.1
			c-0.1,0.1-0.1,0.2-0.1,0.3c0,0.1,0,0.2,0.1,0.2c0.1,0.1,0.3,0.1,0.4,0.1c0.1,0,0.3-0.1,0.4-0.1c0,0,0.1,0,0.1,0
			c0.8-0.3,1.6-0.8,2.2-1.2c1.6-1.1,3.1-2.3,4.6-3.5c0,0,0,0,0.1,0c0.1-0.1,0.2-0.2,0.4-0.3C82.5,145.1,82.7,145,82.9,145.1z
			 M72.5,145.2c1-0.3,1.8-0.8,2.3-1.7C73.4,143.7,72.6,144.3,72.5,145.2z"/>
		<path class="st1" d="M93.7,145.6c-0.1,0.2-0.3,0.4-0.5,0.5c-1.9,1.1-3.9,2-6.1,2.7c-1,0.3-2,0.5-3.1,0.4c-0.6,0-1.1-0.1-1.7-0.3
			c-1.3-0.6-1.7-1.4-1.3-2.4c0.3-0.6,0.9-1.1,1.7-1.5s1.7-0.6,2.6-0.5c0.1,0,0.3,0,0.4,0c0.6,0.1,1,0.3,1.2,0.8
			c0.1,0.4-0.1,0.7-0.5,1c-1,0.7-2.2,0.9-3.6,0.8c-0.2,0-0.4-0.1-0.5-0.1c-0.1,0-0.2,0-0.3-0.1c-0.2,0.8,0.1,1.3,1.1,1.5
			c0.5,0.1,1,0.2,1.6,0.1c1.3-0.1,2.4-0.4,3.5-0.9c1.6-0.7,3.2-1.4,4.7-2.3c0.1-0.1,0.2-0.1,0.3-0.2c0.1-0.1,0.3-0.1,0.4,0
			C93.7,145.3,93.8,145.4,93.7,145.6z M83.2,145.7c0,0-0.1,0-0.2,0.1c-0.1,0.1-0.3,0.1-0.4,0.2c-0.1,0.1-0.1,0.2-0.1,0.3
			c0,0.1,0.1,0.2,0.3,0.2c0.2,0,0.3,0,0.5,0c0.1,0,0.1,0,0.2,0c0.8,0,1.5-0.2,2.2-0.6c0.1,0,0.1-0.1,0.2-0.2c0.1-0.1,0.1-0.1,0-0.2
			c0-0.1-0.1-0.1-0.2-0.2c-0.1,0-0.2,0-0.3,0C84.7,145.2,83.9,145.3,83.2,145.7z"/>
	</g>
	<polygon class="st1" points="51.5,121.3 43.7,135.5 43.7,137.4 50.1,137.4 50.1,135.7 45.3,135.7 52,123.2 52.1,123.2 52.1,134.7 
		52.1,135.7 52.1,137.4 52.1,138.5 52.1,142.5 54,142.5 54,137.4 54,135.7 54,121.3 	"/>
	<path class="st0" d="M61.9,138.6c-1-1.2-1.3-3.8-1.3-6.5c0-0.5,0-3.9,0.7-6.1c0.2-0.7,0.8-1.9,2.2-1.9c1.7,0,2.3,2,2.4,2.5
		c0.2,0.7,0.3,1.8,0.4,2.8l2.9-6c0,0,0,0,0,0c-0.8-1.2-2.6-2.9-5.7-2.9c-7,0-7.6,8.4-7.6,11.4c0,4.5,1.2,8.8,4.3,10.5L61.9,138.6z"
		/>
</g>
<g>
</g>
<g>
</g>
<g>
</g>
<g>
</g>
<g>
</g>
<g>
</g>
<g>
</g>
</svg>